<svg width="120" height="120" viewBox="0 0 120 120" fill="none" xmlns="http://www.w3.org/2000/svg">
<path d="M59.844 119.688C48.008 119.688 36.4378 116.178 26.5965 109.602C16.7552 103.027 9.08482 93.6802 4.55537 82.7451C0.0259242 71.8101 -1.15918 59.7775 1.14992 48.1689C3.45902 36.5603 9.15861 25.8972 17.528 17.5279C28.7509 6.30496 43.9724 -1.18253e-07 59.844 0C75.7156 1.18253e-07 90.9371 6.30496 102.16 17.5279C113.383 28.7508 119.688 43.9723 119.688 59.8439C119.688 75.7155 113.383 90.937 102.16 102.16C96.6159 107.734 90.0212 112.154 82.7577 115.162C75.4941 118.171 67.706 119.709 59.844 119.688V119.688ZM59.844 7.9793C31.2459 7.9793 7.97938 31.2458 7.97938 59.8439C7.97938 88.442 31.2459 111.708 59.844 111.708C88.4421 111.708 111.709 88.442 111.709 59.8439C111.709 31.2458 88.4421 7.9793 59.844 7.9793Z" fill="black"/>
<path d="M84.9499 74.6335L59.8439 49.5278L34.738 74.6335L29.0957 68.9918L59.8439 38.2435L90.5922 68.9918L84.9499 74.6335Z" fill="black"/>
</svg>
