<svg width="60" height="60" viewBox="0 0 60 60" fill="none" xmlns="http://www.w3.org/2000/svg">
<path d="M35.5922 0.446348L37.8365 0.943331L39.6518 1.59785L41.12 2.34801L42.2375 3.15069L43.0826 4.00025L43.7039 4.84794L44.1012 5.67124L44.3456 6.4214L44.452 7.06655L44.5023 7.57478L44.4725 7.89735V21.2503L44.3456 22.8237L44.0248 24.2022L43.5005 25.3555L42.8587 26.3026L42.1125 27.0734L41.2972 27.6979L40.4223 28.178L39.5473 28.5287L38.732 28.7838L37.9858 28.9488L37.344 29.0557L36.8198 29.1064H21.962L20.2531 29.232L18.7849 29.5752L17.5405 30.1322L16.52 30.8055L15.6935 31.6082L15.0219 32.4765L14.5275 33.3861L14.1563 34.3031L13.9044 35.1808L13.7309 35.9835L13.632 36.6568L13.5854 37.1838V44.8336H8.0352L7.51283 44.7529L6.81136 44.5785L6.02593 44.2859L5.15096 43.8358L4.25733 43.1832L3.3637 42.283L2.48873 41.1296L1.69211 39.6537L0.990641 37.8289L0.475732 35.6309L0.126862 33.0035L0 29.9278L0.147383 26.8803L0.544759 24.2828L1.14735 22.1055L1.94397 20.3276L2.83946 18.9023L3.8301 17.807L4.88045 16.9762L5.91959 16.3817L6.91956 15.9822L7.81506 15.7272L8.61167 15.5997L9.20307 15.579H9.60045L9.75716 15.5997H30.0457V13.5292H15.5182L15.4977 6.65208L15.451 5.72375L15.5779 4.87419L15.8484 4.1034L16.2663 3.39824L16.8875 2.75498L17.6655 2.17735L18.6058 1.68037L19.7046 1.22089L20.9676 0.851436L22.4153 0.549495L23.9974 0.303816L25.766 0.148157L27.682 0.0506361L29.7715 0L32.9281 0.127528L35.5922 0.446348ZM19.9285 5.39743L19.3539 6.21698L19.1505 7.24283L19.3539 8.27056L19.9285 9.11824L20.7438 9.67524L21.7642 9.90029L22.7847 9.67524L23.6 9.11824L24.1746 8.27056L24.378 7.24283L24.1746 6.21698L23.6 5.39743L22.7847 4.84981L21.7642 4.62664L20.7438 4.84981L19.9285 5.39743ZM52.489 15.2715L53.1775 15.429L53.9741 15.7216L54.849 16.1717L55.7427 16.8449L56.6382 17.7245L57.5113 18.8966L58.3079 20.3688L59 22.1974L59.5243 24.4047L59.8731 27.0022L60 30.0778L59.8452 33.1554L59.444 35.7528L58.8527 37.9002L58.056 39.6781L57.1605 41.1034L56.1606 42.2286L55.1214 43.0482L54.0711 43.6539L53.0804 44.0534L52.1849 44.2784L51.3883 44.406L50.7969 44.4528L50.3996 44.4247H29.945V46.4745H44.4725L44.5023 53.3817L44.549 54.28L44.4221 55.1296L44.1516 55.9003L43.7244 56.6224L43.1031 57.2469L42.3364 57.8545L41.3942 58.3515L40.2954 58.781L39.0324 59.1504L37.5847 59.473L35.9933 59.6981L34.234 59.8725L32.3087 59.97L30.2192 60L27.0626 59.9025L24.4004 59.5499L22.1635 59.0529L20.3482 58.4284L18.88 57.6764L17.7625 56.8456L16.9174 55.996L16.2961 55.1483L15.8988 54.325L15.645 53.5748L15.548 52.9503L15.4977 52.4496L15.5182 52.1289V38.776L15.645 37.1725L15.9752 35.8147L16.4902 34.6726L17.1413 33.7142L17.8875 32.9247L18.7065 32.3189L19.5796 31.8182L20.4453 31.4675L21.2717 31.2125L22.0198 31.068L22.6597 30.9705L23.5049 30.8899H38.0324L39.7506 30.7642L41.2189 30.421L42.4632 29.894L43.4837 29.1908L44.3027 28.3881L44.9725 27.5198L45.4781 26.6102L45.8493 25.7119L46.1012 24.8417L46.2784 24.0409L46.3754 23.3376L46.4221 22.8106V15.1608H51.6215L51.9723 15.1814L52.489 15.2715ZM36.3869 50.9043L35.8123 51.7351L35.6183 52.7628L35.8123 53.7886L36.3869 54.6082L37.2134 55.1839L38.2339 55.379L39.2544 55.1839L40.0697 54.6082L40.6443 53.7886L40.8476 52.7628L40.6443 51.7351L40.0697 50.9043L39.2544 50.3285L38.2339 50.1335L37.2134 50.3285L36.3869 50.9043Z" fill="url(#paint0_linear_117_35)"/>
<defs>
<linearGradient id="paint0_linear_117_35" x1="30" y1="0" x2="30" y2="60" gradientUnits="userSpaceOnUse">
<stop stop-color="#5F7782" stop-opacity="0.75"/>
<stop offset="1" stop-opacity="0.75"/>
</linearGradient>
</defs>
</svg>
