<svg width="60" height="38" viewBox="0 0 60 38" fill="none" xmlns="http://www.w3.org/2000/svg">
<path d="M59.6748 1.19993H58.6548C57.3936 1.19993 56.2056 1.78793 55.4388 2.78873L44.9988 16.4411L34.5588 2.78873C33.7944 1.78793 32.6052 1.19993 31.3452 1.19993H30.3252L43.4904 18.4151L30.0432 35.9999H31.0632C32.3244 35.9999 33.5124 35.4119 34.278 34.4111L45 20.3903L55.722 34.4111C56.4876 35.4119 57.6756 35.9999 58.9368 35.9999H59.9568L46.5096 18.4151L59.6748 1.19993ZM25.5468 29.0903C22.482 33.7475 16.4484 36.1343 10.68 34.0295C5.6052 32.1779 2.4 27.1331 2.4 21.7307V20.3999H16.8H30V15.4391C30 7.63313 24.2184 0.799132 16.446 0.068332C7.5276 -0.770468 0 6.25193 0 14.9999V21.6875C0 28.1327 3.858 34.1243 9.9228 36.3071C17.8464 39.1583 26.1804 34.9031 28.998 27.5999H28.2324C27.1392 27.5999 26.1468 28.1771 25.5468 29.0903ZM2.4 14.9999C2.4 8.05193 8.052 2.39993 15 2.39993C21.948 2.39993 27.6 8.05193 27.6 14.9999V17.9999H2.4V14.9999Z" fill="url(#paint0_linear_119_5)"/>
<defs>
<linearGradient id="paint0_linear_119_5" x1="29.9784" y1="0.000244141" x2="29.9784" y2="37.201" gradientUnits="userSpaceOnUse">
<stop stop-color="#5F7782" stop-opacity="0.75"/>
<stop offset="1" stop-opacity="0.75"/>
</linearGradient>
</defs>
</svg>
