<svg width="48" height="52" viewBox="0 0 48 52" fill="none" xmlns="http://www.w3.org/2000/svg">
<path d="M23.9883 0C23.2583 0 22.5284 0.179063 21.8984 0.539062L2.07812 11.9805C0.798125 12.7205 0 14.1216 0 15.6016V36.3594C0 37.8594 0.798125 39.2405 2.07812 39.9805L7.28125 42.9805C9.80125 44.2205 10.6998 44.2188 11.8398 44.2188C15.5798 44.2188 17.7188 41.9591 17.7188 38.0391V16.6211C17.7188 16.3011 17.4606 16.0391 17.1406 16.0391H14.6406C14.3006 16.0391 14.0586 16.3011 14.0586 16.6211V38.0195C14.0586 39.7795 12.2408 41.4991 9.30078 40.0391L3.85938 36.8984C3.65937 36.7984 3.53906 36.5794 3.53906 36.3594V15.6211C3.53906 15.3811 3.65937 15.1786 3.85938 15.0586L23.6797 3.62109C23.8597 3.50109 24.1008 3.50109 24.3008 3.62109L44.1211 15.0586C44.3211 15.1786 44.4414 15.3816 44.4414 15.6016V36.3594C44.4414 36.5794 44.3206 36.7984 44.1406 36.8984L24.3008 48.3594C24.1208 48.4594 23.8597 48.4594 23.6797 48.3594L18.5781 45.3398C18.4381 45.2398 18.2416 45.2208 18.1016 45.3008C16.6816 46.1008 16.4216 46.2002 15.1016 46.6602C14.7816 46.7602 14.2812 46.9595 15.2812 47.5195L21.8984 51.4414C22.5384 51.8014 23.2605 52 23.9805 52C24.7205 52 25.4381 51.8014 26.0781 51.4414L45.9219 39.9805C47.2019 39.2405 48 37.8594 48 36.3594V15.6211C48 14.1211 47.2019 12.74 45.9219 12L26.0781 0.539062C25.4481 0.179063 24.7183 0 23.9883 0ZM29.3203 16.0117C23.6603 16.0117 20.2812 18.4102 20.2812 22.4102C20.2812 26.7502 23.6381 27.9483 29.0781 28.4883C35.5781 29.1283 36.0781 30.0911 36.0781 31.3711C36.0781 33.5711 34.3011 34.5117 30.1211 34.5117C24.8611 34.5117 23.7003 33.1898 23.3203 30.5898C23.2803 30.3098 23.0417 30.1094 22.7617 30.1094H20.1797C19.8597 30.1094 19.6211 30.3719 19.6211 30.6719C19.6211 34.0119 21.4411 37.9883 30.1211 37.9883C36.4011 37.9883 40 35.5114 40 31.1914C40 26.9114 37.0995 25.7692 31.0195 24.9492C24.8395 24.1492 24.2188 23.7291 24.2188 22.2891C24.2188 21.0891 24.7603 19.5117 29.3203 19.5117C33.3803 19.5117 34.8995 20.3889 35.5195 23.1289C35.5795 23.3889 35.7981 23.5898 36.0781 23.5898H38.6602C38.8202 23.5898 38.9581 23.5106 39.0781 23.3906C39.1781 23.2906 39.2387 23.1292 39.2188 22.9492C38.8187 18.2292 35.6803 16.0117 29.3203 16.0117Z" fill="url(#paint0_linear_119_3)"/>
<defs>
<linearGradient id="paint0_linear_119_3" x1="24" y1="0" x2="24" y2="52" gradientUnits="userSpaceOnUse">
<stop stop-color="#5F7782" stop-opacity="0.75"/>
<stop offset="1" stop-opacity="0.75"/>
</linearGradient>
</defs>
</svg>
