<svg width="60" height="60" viewBox="0 0 60 60" fill="none" xmlns="http://www.w3.org/2000/svg">
<path d="M22.8837 28.5211C29.2884 23.2884 35.5535 17.8744 42.0977 12.7952C38.6651 18.0698 35.1349 23.2744 31.7023 28.5487C28.758 28.5628 25.8141 28.563 22.8837 28.5211ZM28.2977 31.4372C31.2558 31.4372 34.2 31.4372 37.1442 31.4791C30.6977 36.6837 24.4605 42.1395 17.9023 47.2048C21.3349 41.9302 24.8651 36.7118 28.2977 31.4372Z" fill="url(#paint0_linear_119_12)"/>
<path d="M60 30C60 46.5685 46.5685 60 30 60C13.4315 60 0 46.5685 0 30C0 13.4315 13.4315 0 30 0C46.5685 0 60 13.4315 60 30ZM4.9979 30C4.9979 43.8083 16.1917 55.0021 30 55.0021C43.8083 55.0021 55.0021 43.8083 55.0021 30C55.0021 16.1917 43.8083 4.9979 30 4.9979C16.1917 4.9979 4.9979 16.1917 4.9979 30Z" fill="url(#paint1_linear_119_12)"/>
<defs>
<linearGradient id="paint0_linear_119_12" x1="30" y1="0" x2="30" y2="60" gradientUnits="userSpaceOnUse">
<stop stop-color="#5F7782" stop-opacity="0.75"/>
<stop offset="1" stop-opacity="0.75"/>
</linearGradient>
<linearGradient id="paint1_linear_119_12" x1="30" y1="0" x2="30" y2="60" gradientUnits="userSpaceOnUse">
<stop stop-color="#5F7782" stop-opacity="0.75"/>
<stop offset="1" stop-opacity="0.75"/>
</linearGradient>
</defs>
</svg>
