<svg width="52" height="56" viewBox="0 0 52 56" fill="none" xmlns="http://www.w3.org/2000/svg">
<path d="M48.692 12.4047L28.4842 1.04692C26.9514 0.189111 25.0482 0.189111 23.5154 1.04692L3.30762 12.4047C1.76074 13.2719 0.799805 14.8985 0.799805 16.6422V39.3579C0.799805 41.1016 1.76074 42.7282 3.30762 43.5954L23.5154 54.9532C24.2842 55.3844 25.142 55.6001 25.9998 55.6001C26.8576 55.6001 27.7154 55.3844 28.4842 54.9532L48.692 43.5954C50.2389 42.7282 51.1998 41.1016 51.1998 39.3579V16.6422C51.1998 14.8985 50.2389 13.2719 48.692 12.4047ZM25.9998 42.4001C18.0592 42.4001 11.5998 35.9407 11.5998 28C11.5998 20.0594 18.0592 13.6 25.9998 13.6C30.5373 13.6 34.7279 15.7047 37.4514 19.2907L32.192 22.3329C30.6123 20.6032 28.367 19.6 25.9998 19.6C21.3686 19.6 17.5998 23.3688 17.5998 28C17.5998 32.6313 21.3686 36.4001 25.9998 36.4001C28.367 36.4001 30.6123 35.3969 32.192 33.6672L37.4514 36.7094C34.7279 40.2954 30.5373 42.4001 25.9998 42.4001ZM40.3998 29.2H37.9998V31.6001H35.5998V29.2H33.1998V26.8H35.5998V24.4H37.9998V26.8H40.3998V29.2ZM48.7998 29.2H46.3998V31.6001H43.9998V29.2H41.5998V26.8H43.9998V24.4H46.3998V26.8H48.7998V29.2Z" fill="url(#paint0_linear_131_6)"/>
<defs>
<linearGradient id="paint0_linear_131_6" x1="25.9998" y1="0.403564" x2="25.9998" y2="55.6001" gradientUnits="userSpaceOnUse">
<stop stop-color="#B1C4CA" stop-opacity="0.75"/>
<stop offset="0.552083" stop-color="#64787E" stop-opacity="0.75"/>
<stop offset="1" stop-color="#2D3537" stop-opacity="0.75"/>
</linearGradient>
</defs>
</svg>
