<svg width="50" height="60" viewBox="0 0 50 60" fill="none" xmlns="http://www.w3.org/2000/svg">
<path d="M16.1072 46.3975C16.1072 46.3975 13.5144 47.7344 17.948 48.1825C23.32 48.73 26.0674 48.6531 31.9817 47.6556C31.9817 47.6556 33.5344 48.5256 35.7099 49.2775C22.4388 54.3082 5.67878 48.9756 16.1051 46.3975H16.1072ZM14.4824 39.8349C14.4824 39.8349 11.5698 41.738 16.0055 42.1374C21.7567 42.6643 26.2771 42.7149 34.1212 41.378C34.1212 41.378 35.2037 42.3455 36.9153 42.8799C20.8734 47.0294 2.99913 43.2024 14.4846 39.8349H14.4824ZM28.1518 28.6935C31.4161 32.0235 27.2897 35.0217 27.2897 35.0217C27.2897 35.0217 35.5871 31.221 31.7805 26.4772C28.2196 22.0428 25.4828 19.8471 40.2643 12.257C40.2643 12.257 17.0625 17.3852 28.1497 28.6954L28.1518 28.6935ZM45.6956 51.2613C45.6956 51.2613 47.6169 52.6563 43.5879 53.7419C35.9302 55.7913 11.7138 56.4064 4.98397 53.8188C2.56911 52.8907 7.10228 51.5932 8.52577 51.3288C10.0149 51.0363 10.8644 51.0963 10.8644 51.0963C8.17202 49.4163 -6.52264 54.387 3.39737 55.812C30.4608 59.6989 52.722 54.0644 45.6956 51.2613V51.2613ZM17.3527 33.0286C17.3527 33.0286 5.03058 35.6161 12.9827 36.5536C16.3487 36.953 23.0467 36.8667 29.2915 36.398C34.386 36.0155 39.5081 35.2055 39.5081 35.2055C39.5081 35.2055 37.7096 35.888 36.4069 36.6811C23.8941 39.5911 -0.275768 38.2336 6.68497 35.2561C12.5654 32.7454 17.3527 33.0286 17.3527 33.0286V33.0286ZM39.4509 43.9656C52.1607 38.1061 46.2803 32.4904 42.1877 33.2536C41.1815 33.4279 40.7303 33.5967 40.7303 33.5967C40.7303 33.5967 41.0947 33.0773 41.8128 32.8542C49.9322 30.3248 56.177 40.3036 39.1967 44.2599C39.1967 44.2506 39.3979 44.1043 39.4509 43.9674V43.9656ZM31.7826 0C31.7826 0 38.8238 6.23071 25.0972 15.8196C14.099 23.5147 22.5913 27.9004 25.0972 32.9104C18.6767 27.7822 13.9656 23.2728 17.1218 19.0727C21.7652 12.8908 34.619 9.902 31.7826 0ZM18.5983 59.8151C30.8018 60.4977 49.5446 59.4251 50 54.3176C50 54.3176 49.1378 56.2507 39.9021 57.792C29.4885 59.5301 16.6346 59.3239 9.01087 58.212C9.01087 58.212 10.5784 59.3539 18.5962 59.8151H18.5983Z" fill="url(#paint0_linear_131_4)"/>
<defs>
<linearGradient id="paint0_linear_131_4" x1="25" y1="0" x2="25" y2="60" gradientUnits="userSpaceOnUse">
<stop stop-color="#B1C4CA" stop-opacity="0.75"/>
<stop offset="0.552083" stop-color="#64787E" stop-opacity="0.75"/>
<stop offset="1" stop-color="#2D3537" stop-opacity="0.75"/>
</linearGradient>
</defs>
</svg>
