<svg width="60" height="41" viewBox="0 0 60 41" fill="none" xmlns="http://www.w3.org/2000/svg">
<path fill-rule="evenodd" clip-rule="evenodd" d="M30 0C22.002 0 17.002 4.55556 15 13.6667C18.0013 9.11298 21.5007 7.40488 25.498 8.54237C27.7832 9.1913 29.4043 11.0765 31.2207 13.1632C34.1504 16.5645 37.5684 20.4972 45 20.4972C52.998 20.4972 57.998 15.9416 60 6.83054C57.002 11.388 53.5026 13.0961 49.502 11.9548C47.2168 11.3059 45.5957 9.42066 43.7793 7.33402C40.8398 3.91595 37.4365 0 30 0ZM15 20.4972C7.00195 20.4972 2.00195 25.0528 0 34.1639C3.00456 29.6102 6.50391 27.9021 10.498 29.0396C12.7832 29.6885 14.4043 31.5737 16.2207 33.666C19.1504 37.0617 22.5684 41 30 41C37.998 41 42.998 36.4444 45 27.3333C42.002 31.887 38.5026 33.5914 34.502 32.4464C32.2168 31.7975 30.5957 29.9123 28.7793 27.8256C25.8496 24.4243 22.4316 20.486 15 20.486V20.4972Z" fill="url(#paint0_linear_122_33)"/>
<defs>
<linearGradient id="paint0_linear_122_33" x1="30" y1="0" x2="30" y2="41" gradientUnits="userSpaceOnUse">
<stop stop-opacity="0.75"/>
<stop offset="1" stop-color="#C78A44" stop-opacity="0.75"/>
</linearGradient>
</defs>
</svg>
