<svg width="68" height="60" viewBox="0 0 68 60" fill="none" xmlns="http://www.w3.org/2000/svg">
<path d="M34.1209 23.987C30.806 23.987 28.1065 26.6865 28.1065 30.0014C28.1065 33.3163 30.806 36.0159 34.1209 36.0159C37.4358 36.0159 40.1354 33.3163 40.1354 30.0014C40.1354 26.6865 37.4358 23.987 34.1209 23.987ZM17.283 41.9545L15.9553 41.6257C6.0759 39.1222 0.402832 34.8863 0.402832 29.9909C0.402832 25.0955 6.07801 20.8596 15.9553 18.356L17.283 18.0273L17.656 19.3444C18.6549 22.79 19.9383 26.1491 21.4872 29.3987L21.7717 29.9909L21.4872 30.5936C19.9404 33.8305 18.6549 37.1897 17.656 40.6479L17.283 41.9545ZM15.3421 21.4286C7.83346 23.536 3.22461 26.7729 3.22461 29.9909C3.22461 33.2089 7.83556 36.4332 15.3421 38.5532C16.2651 35.6218 17.3736 32.7684 18.6675 29.9909C17.3715 27.2134 16.263 24.36 15.3421 21.4286V21.4286ZM50.9589 41.9545L50.5859 40.6374C49.587 37.1918 48.3036 33.8327 46.7547 30.5936L46.4702 29.9909L46.7547 29.3882C48.3015 26.1512 49.587 22.7921 50.5859 19.3339L50.9589 18.0273L52.2865 18.356C62.1659 20.8596 67.839 25.0955 67.839 29.9909C67.839 34.8863 62.1638 39.1222 52.2865 41.6257L50.9589 41.9545ZM49.5743 29.9909C50.9252 32.9096 52.0442 35.7757 52.8998 38.5532C60.4189 36.4353 65.0172 33.2089 65.0172 29.9909C65.0172 26.7729 60.4063 23.5486 52.8998 21.4286C51.9768 24.3473 50.8683 27.2134 49.5743 29.9909ZM15.3189 21.4181L14.9459 20.101C12.1683 10.3101 13.0134 3.28617 17.2619 0.837393C21.4324 -1.56713 28.117 1.27573 35.1304 8.47665L36.085 9.45447L35.1304 10.4323C32.6394 13.0223 30.3677 15.8103 28.3256 18.7733L27.9421 19.3107L27.2825 19.3655C23.6936 19.65 20.1363 20.2211 16.6465 21.0788L15.3189 21.4181ZM20.6527 2.79304C19.8961 2.79304 19.226 2.94688 18.6654 3.27563C15.8773 4.88989 15.3842 10.4871 17.304 18.0378C20.3007 17.3677 23.329 16.8956 26.3932 16.6217C28.1486 14.1181 30.0811 11.7262 32.1547 9.47555C27.7756 5.20599 23.6262 2.79094 20.6527 2.79094V2.79304ZM47.5997 59.9979C47.5892 59.9979 47.5892 59.9979 47.5997 59.9979C43.5936 59.9979 38.4453 56.9907 33.1115 51.503L32.1568 50.5252L33.1115 49.5474C35.6024 46.9574 37.8742 44.1694 39.9162 41.2064L40.2892 40.669L40.9488 40.6037C44.5377 40.3297 48.095 39.7586 51.5953 38.8904L52.923 38.5616L53.296 39.8787C56.0735 49.6696 55.2284 56.683 50.98 59.1297C49.9474 59.7218 48.7841 60.019 47.5997 59.9958V59.9979ZM36.085 50.5041C40.4641 54.7737 44.6136 57.1887 47.5871 57.1887H47.5976C48.3436 57.1887 49.0138 57.0244 49.5743 56.7062C52.3624 55.0919 52.8682 49.4947 50.9357 41.944C47.939 42.6141 44.8981 43.0862 41.8466 43.3496C40.0911 45.8637 38.1587 48.245 36.085 50.5062V50.5041ZM52.923 21.4181L51.5953 21.0788C48.095 20.2232 44.5377 19.6521 40.9488 19.3655L40.2892 19.3107L39.9162 18.7733C37.8742 15.8103 35.6024 13.0223 33.1115 10.4323L32.1568 9.45447L33.1115 8.47665C40.1248 1.27573 46.8095 -1.56713 50.98 0.837393C55.2284 3.28406 56.0735 10.3101 53.296 20.101L52.923 21.4181ZM41.8487 16.6217C45.054 16.9188 48.1055 17.3909 50.9378 18.0378C52.8703 10.4871 52.3645 4.88778 49.5765 3.27563C46.7989 1.67402 41.5747 4.13123 36.0871 9.47765C38.1608 11.7389 40.0827 14.1202 41.8487 16.6238V16.6217ZM20.6527 59.9979C19.4662 60.019 18.2924 59.7239 17.2619 59.1318C13.0134 56.6851 12.1683 49.6696 14.9459 39.8808L15.3189 38.5637L16.6465 38.8925C19.8961 39.7165 23.4744 40.2855 27.2825 40.6058L27.9421 40.6711L28.3151 41.2085C30.3571 44.1715 32.6289 46.9595 35.1198 49.5495L36.0745 50.5273L35.1198 51.5051C29.7966 56.9928 24.6482 60 20.6527 60V59.9979ZM17.3061 41.944C15.3737 49.4947 15.8794 55.094 18.6675 56.7062C21.445 58.2867 26.6587 55.8506 32.1568 50.5041C30.0832 48.2429 28.1507 45.8616 26.3953 43.3475C23.3332 43.0841 20.3028 42.612 17.3061 41.9419V41.944ZM34.1209 43.7099C31.8049 43.7099 29.4341 43.6109 27.0528 43.4128L26.3932 43.358L26.0096 42.8101C24.6714 40.8776 23.3965 38.8925 22.2227 36.8504C21.0362 34.8084 19.9509 32.7242 18.9415 30.5936L18.657 29.9909L18.9415 29.3882C19.9509 27.2597 21.0383 25.1734 22.2227 23.1314C23.3859 21.123 24.6588 19.1147 26.0096 17.1717L26.3932 16.6238L27.0528 16.569C31.7607 16.1728 36.4917 16.1728 41.1891 16.569L41.8487 16.6238L42.2322 17.1717C44.9212 21.0345 47.292 25.1292 49.3004 29.3882L49.5849 29.9909L49.3004 30.5936C47.292 34.8526 44.9318 38.9473 42.2322 42.8101L41.8487 43.358L41.1891 43.4128C38.8183 43.6109 36.4369 43.7099 34.1209 43.7099V43.7099ZM27.9526 40.6585C32.1021 40.9767 36.1398 40.9767 40.2998 40.6585C42.6158 37.2677 44.6789 33.6999 46.4681 29.9888C44.6894 26.2798 42.6263 22.712 40.2892 19.3191C36.184 19.0009 32.0578 19.0009 27.9526 19.3191C25.6155 22.7099 23.5503 26.2777 21.7738 29.9888C23.5629 33.6978 25.6261 37.2656 27.9526 40.6585Z" fill="url(#paint0_linear_112_27)"/>
<defs>
<linearGradient id="paint0_linear_112_27" x1="34.1209" y1="0" x2="34.1209" y2="60" gradientUnits="userSpaceOnUse">
<stop stop-opacity="0.75"/>
<stop offset="1" stop-color="#C78A44" stop-opacity="0.75"/>
</linearGradient>
</defs>
</svg>
