<svg width="61" height="60" viewBox="0 0 61 60" fill="none" xmlns="http://www.w3.org/2000/svg">
<path d="M0.244629 0H60.2446V60H0.244629V0ZM55.3321 45.6938C54.8934 42.9488 53.1046 40.6538 47.8228 38.5069C45.9871 37.6481 43.9359 37.0425 43.3303 35.655C43.1053 34.8338 43.0659 34.3856 43.2121 33.8962C43.5928 32.2744 45.4978 31.7962 47.0015 32.2462C47.9784 32.5481 48.8765 33.2906 49.4428 34.4925C52.0303 32.8031 52.0303 32.8031 53.8284 31.68C53.1553 30.6356 52.8234 30.1762 52.364 29.7375C50.7909 27.9694 48.6928 27.0712 45.284 27.15L43.5159 27.375C41.8265 27.7856 40.2159 28.6838 39.239 29.8856C36.3965 33.1088 37.2178 38.7337 40.664 41.0681C44.0728 43.6162 49.0621 44.1731 49.7071 46.5769C50.3034 49.5075 47.5303 50.445 44.7853 50.1019C42.764 49.6519 41.6409 48.6375 40.3996 46.7625L35.8284 49.3894C36.3459 50.5912 36.9515 51.1087 37.8496 52.1625C42.1959 56.5481 53.0746 56.3231 55.0265 49.6519C55.094 49.4269 55.6228 47.8838 55.2121 45.5306L55.3321 45.6938ZM32.8715 27.5775H27.2559C27.2559 32.4206 27.2259 37.2356 27.2259 42.09C27.2259 45.1669 27.3815 47.9981 26.8846 48.8681C26.054 50.5875 23.9353 50.3719 22.9678 50.07C21.9815 49.5825 21.4734 48.9075 20.8978 47.9306C20.7309 47.6662 20.6146 47.4431 20.5753 47.4431L16.0153 50.2556C16.7765 51.8287 17.8903 53.1862 19.3265 54.045C21.4659 55.3237 24.3365 55.7344 27.344 55.0612C29.2978 54.495 30.9871 53.3325 31.8646 51.5363C33.1434 49.2113 32.8696 46.3612 32.8603 43.1662C32.8903 38.0287 32.8603 32.8931 32.8603 27.7162L32.8715 27.5775Z" fill="url(#paint0_linear_112_25)"/>
<defs>
<linearGradient id="paint0_linear_112_25" x1="30.2446" y1="0" x2="30.2446" y2="60" gradientUnits="userSpaceOnUse">
<stop stop-opacity="0.75"/>
<stop offset="1" stop-color="#C78A44" stop-opacity="0.75"/>
</linearGradient>
</defs>
</svg>
