<svg width="61" height="60" viewBox="0 0 61 60" fill="none" xmlns="http://www.w3.org/2000/svg">
<path d="M45.5273 56.2537C45.3042 56.3718 45.323 56.4093 45.5367 56.3005C45.6061 56.2724 45.6642 56.233 45.7149 56.1862C45.7149 56.1468 45.7149 56.1468 45.5273 56.2537V56.2537ZM45.9774 56.0099C45.8705 56.098 45.8705 56.098 45.998 56.0399C46.0655 56.0005 46.1255 55.963 46.1255 55.9518C46.1255 55.9012 46.0955 55.9124 45.9774 56.0099V56.0099ZM46.2699 55.8337C46.163 55.9218 46.163 55.9218 46.2905 55.8637C46.3599 55.8243 46.418 55.783 46.418 55.7737C46.418 55.7268 46.388 55.7362 46.2699 55.8337ZM46.5661 55.6593C46.4592 55.7474 46.4592 55.7474 46.583 55.6874C46.6524 55.6499 46.7105 55.6105 46.7105 55.5993C46.7105 55.5524 46.6805 55.5618 46.5661 55.6593ZM46.9655 55.3949C46.7611 55.5318 46.6899 55.6199 46.8774 55.5224C47.003 55.4455 47.2168 55.2768 47.1793 55.2768C47.0986 55.3068 47.0311 55.3574 46.9636 55.3949H46.9655ZM29.0345 0.0137816C28.8976 0.0231568 28.487 0.0606575 28.127 0.0906581C19.5993 0.863174 11.621 5.45327 6.56406 12.524C3.76838 16.3997 1.95334 20.9017 1.26895 25.6287C1.02707 27.2787 0.99707 27.7662 0.99707 30.0031C0.99707 32.2382 1.02707 32.7182 1.26895 34.3682C2.90211 45.6391 10.9198 55.1005 21.7875 58.6068C23.7432 59.2312 25.7926 59.6625 28.127 59.9269C29.0345 60.0244 32.959 60.0244 33.8665 59.9269C37.9016 59.4769 41.3085 58.4812 44.6798 56.7618C45.1973 56.4993 45.2948 56.4299 45.2255 56.3718C43.5754 54.1949 41.9554 52.0161 40.3335 49.8185L35.539 43.344L29.5333 34.447C27.5307 31.4694 25.5207 28.4994 23.4788 25.5518C23.4581 25.5518 23.4319 29.5063 23.4206 34.3289C23.4 42.7759 23.4 43.119 23.2931 43.314C23.1863 43.5484 23.01 43.7434 22.7756 43.8522C22.59 43.9403 22.4231 43.959 21.5362 43.959H20.5218L20.2575 43.794C20.0925 43.6872 19.9556 43.539 19.8675 43.3647L19.7399 43.1003L19.7493 31.3419L19.77 19.5836L19.9556 19.3492C20.0737 19.2048 20.22 19.0867 20.385 18.9985C20.6306 18.8804 20.7281 18.8617 21.7425 18.8617C22.9331 18.8617 23.13 18.9085 23.4431 19.2517C25.8732 22.8742 28.2957 26.5062 30.6789 30.1494C34.5771 36.0595 39.8985 44.124 42.5142 48.0804L47.2711 55.2787L47.5055 55.123C49.7912 53.5986 51.8706 51.7836 53.665 49.7135C57.4451 45.386 59.8976 40.0627 60.7283 34.3814C60.9702 32.7313 61.0002 32.2419 61.0002 30.0069C61.0002 27.77 60.9702 27.2918 60.7283 25.6418C59.0951 14.3709 51.0775 4.90951 40.2097 1.40131C38.1772 0.758172 36.0865 0.319413 33.9696 0.0944082C33.4015 0.036282 29.5239 -0.0330944 29.0364 0.0175317L29.0345 0.0137816ZM41.3104 18.1585C41.5935 18.2935 41.8073 18.5485 41.9048 18.841C41.9554 18.9985 41.9648 22.2592 41.9554 29.6038L41.9348 40.149L40.0804 37.2989L38.2147 34.447V26.7912C38.2147 21.828 38.2353 19.0454 38.2616 18.9085C38.3497 18.5954 38.5635 18.3329 38.8485 18.1679C39.081 18.0498 39.171 18.0404 40.0991 18.0404C40.9673 18.0404 41.1135 18.0498 41.3085 18.1585H41.3104Z" fill="url(#paint0_linear_112_29)"/>
<defs>
<linearGradient id="paint0_linear_112_29" x1="30.9986" y1="0" x2="30.9986" y2="60" gradientUnits="userSpaceOnUse">
<stop stop-opacity="0.75"/>
<stop offset="1" stop-color="#C78A44" stop-opacity="0.75"/>
</linearGradient>
</defs>
</svg>
