<svg width="60" height="60" viewBox="0 0 60 60" fill="none" xmlns="http://www.w3.org/2000/svg">
<path d="M58.867 27.322L32.6658 1.13465C31.162 -0.378216 28.7114 -0.378216 27.1964 1.13465L21.7664 6.57309L28.6702 13.4663C30.2808 12.9301 32.1183 13.2901 33.3877 14.5705C34.6777 15.8602 35.0377 17.7143 34.492 19.3153L41.1333 25.9648C42.7439 25.408 44.6002 25.7698 45.8789 27.0577C47.6864 28.8536 47.6864 31.7631 45.8789 33.5609C44.0827 35.3569 41.182 35.3569 39.3839 33.5609C38.0358 32.2131 37.6945 30.2221 38.3677 28.5724L32.1464 22.3822V38.6976C32.5852 38.9132 33.0052 39.2056 33.367 39.5674C35.1539 41.3746 35.1539 44.2729 33.367 46.0707C31.5708 47.8666 28.6495 47.8666 26.8439 46.0707C25.0477 44.2747 25.0477 41.3746 26.8439 39.5674C27.3033 39.1175 27.8114 38.7857 28.357 38.5626V22.0917C27.8208 21.8573 27.3014 21.5349 26.8533 21.0868C25.4958 19.7296 25.1639 17.7387 25.867 16.0683L19.0889 9.25388L1.12078 27.2095C-0.373594 28.713 -0.373594 31.1632 1.12078 32.678L27.322 58.8653C28.8352 60.3782 31.2764 60.3782 32.7914 58.8653L58.8652 32.7961C60.3783 31.2926 60.3783 28.8424 58.8652 27.3276L58.867 27.322Z" fill="url(#paint0_linear_121_18)"/>
<defs>
<linearGradient id="paint0_linear_121_18" x1="30" y1="0" x2="30" y2="60" gradientUnits="userSpaceOnUse">
<stop stop-color="#251F13" stop-opacity="0.792969"/>
<stop offset="1" stop-color="#D8B26E"/>
</linearGradient>
</defs>
</svg>
