<svg width="60" height="68" viewBox="0 0 60 68" fill="none" xmlns="http://www.w3.org/2000/svg">
<path d="M35.7633 7.72734L49.6211 15.737C51.9153 13.3227 55.7326 13.2237 58.1469 15.5179C58.5535 15.9139 58.9158 16.3627 59.2002 16.8556C60.8561 19.7418 59.8596 23.4285 56.9608 25.0843C56.4784 25.3582 55.9517 25.5773 55.3913 25.71V41.7188C58.6167 42.4877 60.6033 45.713 59.8343 48.9384C59.7016 49.5093 59.472 50.057 59.1876 50.5626C57.5191 53.4383 53.845 54.4242 50.9588 52.7578C50.4111 52.4502 49.9055 52.0331 49.4884 51.5612L35.7064 59.5161C36.7492 62.6656 35.0365 66.0658 31.887 67.1086C31.2718 67.3171 30.6356 67.4162 29.9994 67.4162C26.6856 67.4162 23.9869 64.7386 23.9869 61.4142C23.9869 60.8433 24.0754 60.2618 24.2397 59.7015L10.3714 51.7024C8.07718 54.1061 4.27039 54.2051 1.86877 51.9004C-0.522323 49.6062 -0.610804 45.81 1.67074 43.4083C2.47128 42.5741 3.49303 41.9821 4.61168 41.7082V25.6995C1.38634 24.9306 -0.610804 21.6842 0.168671 18.4462C0.301392 17.8858 0.520488 17.3486 0.804891 16.8556C2.46075 13.98 6.14745 12.9941 9.02309 14.6605C9.51605 14.9449 9.97742 15.2967 10.3735 15.7138L24.2418 7.7147C23.298 4.5336 25.1203 1.18607 28.2909 0.252803C28.8386 0.0779475 29.4201 0 30.0036 0C33.3174 0 36.0161 2.6776 36.0161 5.99142C36.0161 6.5834 35.9276 7.16485 35.7633 7.72523V7.72734ZM34.316 10.1964C34.2612 10.2512 34.217 10.3059 34.1517 10.3607L52.3008 41.7862C52.3766 41.7651 52.4651 41.7419 52.5304 41.7209V25.6911C49.3156 24.9011 47.3627 21.642 48.1633 18.4272C48.1738 18.3619 48.197 18.284 48.2075 18.2186L34.316 10.1964ZM25.845 10.3607L25.6807 10.1964L11.7892 18.206C12.7119 21.3871 10.8664 24.7136 7.68534 25.6342C7.6095 25.6553 7.54208 25.6679 7.46624 25.689V41.7188L7.70851 41.7841L25.8576 10.3586L25.845 10.3607ZM31.6826 11.7869C30.5851 12.0945 29.4222 12.0945 28.3351 11.7869L10.186 43.2124C11.0097 44.0024 11.5911 45.0221 11.8755 46.1428H48.1401C48.414 45.0242 48.9954 44.0024 49.8297 43.2019L31.6826 11.7869ZM34.4466 57.3651L48.2496 49.3892C48.2054 49.2565 48.1738 49.1259 48.1401 48.9932H11.865L11.7997 49.2228L25.6807 57.2324C26.7677 56.1032 28.3035 55.3996 30.0036 55.3996C31.7711 55.3996 33.3511 56.1559 34.4466 57.363V57.3651Z" fill="url(#paint0_linear_122_28)"/>
<defs>
<linearGradient id="paint0_linear_122_28" x1="30" y1="0" x2="30" y2="67.4162" gradientUnits="userSpaceOnUse">
<stop stop-color="#251F13" stop-opacity="0.792969"/>
<stop offset="0.526042" stop-color="#A08452" stop-opacity="0.935303"/>
<stop offset="1" stop-color="#D8B26E"/>
</linearGradient>
</defs>
</svg>
