<svg width="60" height="60" viewBox="0 0 60 60" fill="none" xmlns="http://www.w3.org/2000/svg">
<path d="M57.8682 6.31102L45.5254 0.373058C44.0892 -0.320673 42.3811 -0.0281805 41.258 1.09491L17.6168 22.6662L7.31394 14.8533C6.35772 14.1202 5.00963 14.1802 4.12091 14.9902L0.820997 17.9976C-0.272098 18.9838 -0.272098 20.7031 0.811622 21.6893L9.74763 29.8435L0.811622 37.9977C-0.272098 38.9839 -0.272098 40.7032 0.820997 41.6894L4.12091 44.6968C5.01901 45.5068 6.35772 45.5668 7.31394 44.8337L17.6168 37.0114L41.2693 58.5921C42.383 59.7152 44.0911 60.0077 45.5273 59.3139L57.8813 53.3666C59.1806 52.7422 60 51.4335 60 49.988V9.68593C60 8.24972 59.1694 6.93163 57.8719 6.30727L57.8682 6.31102ZM45.006 43.4688L27.0572 29.8454L45.006 16.222V43.4688Z" fill="url(#paint0_linear_121_21)"/>
<defs>
<linearGradient id="paint0_linear_121_21" x1="30" y1="0" x2="30" y2="59.687" gradientUnits="userSpaceOnUse">
<stop stop-color="#251F13" stop-opacity="0.792969"/>
<stop offset="1" stop-color="#D8B26E"/>
</linearGradient>
</defs>
</svg>
