<svg width="60" height="60" viewBox="0 0 60 60" fill="none" xmlns="http://www.w3.org/2000/svg">
<path d="M0 0V60H60V0H0ZM2.49937 2.56363H57.4988V57.4344H2.49937V2.56363ZM14.5013 14.0528C14.5013 13.8817 14.8538 13.7528 15.0581 13.7528C16.6688 13.672 19.0331 13.622 21.5044 13.622C28.4381 13.622 31.1325 17.5184 31.1325 22.5072C31.1325 29.0288 26.5238 31.8232 20.8781 31.8232C19.9219 31.8232 19.5994 31.7732 18.9356 31.7732V41.6296C18.9356 41.8392 18.8569 41.9296 18.6525 41.9296H14.7844C14.58 41.9296 14.5013 41.8488 14.5013 41.6392V14.0528ZM18.9356 27.6768C19.5112 27.7172 19.9706 27.7172 20.9663 27.7172C23.8856 27.7172 26.64 26.6556 26.64 22.5995C26.64 19.3435 24.6675 17.6915 21.3281 17.6915C20.3419 17.6915 19.395 17.7319 18.9356 17.7723V27.6768ZM40.4587 24.6208C38.4769 24.6208 37.8131 25.642 37.8131 26.4844C37.8131 27.4152 38.2631 28.048 40.9088 29.45C44.8256 31.4039 46.065 33.256 46.065 36.01C46.065 40.1064 43.0087 42.3104 38.8875 42.3104C36.6994 42.3104 34.8356 41.8392 33.7613 41.2084C33.6056 41.1276 33.5663 40.9988 33.5663 40.7872V37.0216C33.5663 36.7716 33.6844 36.6812 33.8494 36.812C35.4112 37.8736 37.2281 38.3351 38.8781 38.3351C40.86 38.3351 41.6812 37.4928 41.6812 36.3427C41.6812 35.4119 41.1056 34.6099 38.595 33.2579C35.04 31.5155 33.555 29.7423 33.555 26.7767C33.555 23.4707 36.075 20.7263 40.44 20.7263C42.5888 20.7263 44.1019 21.0667 44.9325 21.4379C45.1369 21.5687 45.1762 21.7783 45.1762 21.9495V25.4651C45.1762 25.6747 45.0487 25.8055 44.805 25.7151C43.6912 25.0439 42.0506 24.6131 40.4494 24.6131L40.4587 24.6208Z" fill="url(#paint0_linear_122_31)"/>
<defs>
<linearGradient id="paint0_linear_122_31" x1="30" y1="0" x2="30" y2="60" gradientUnits="userSpaceOnUse">
<stop stop-color="#251F13" stop-opacity="0.792969"/>
<stop offset="1" stop-color="#D8B26E"/>
</linearGradient>
</defs>
</svg>
