<svg width="60" height="60" viewBox="0 0 41 60" fill="none" xmlns="http://www.w3.org/2000/svg">
<path d="M20.0027 30.0021C20.0027 16.6726 40.0034 16.6726 40.0034 30.0021C40.0034 43.3316 20.0027 43.3316 20.0027 30.0021ZM0.00187577 50.0029C0.00187577 44.4753 4.47379 40.0034 10.0013 40.0034H20.0008V50.0029C20.0008 63.3324 0 63.3324 0 50.0029H0.00187577ZM20.0027 0.00187501V20.0027H30.0021C43.3316 20.0027 43.3316 0.00187501 30.0021 0.00187501H20.0027ZM0.00187577 10.0013C0.00187577 15.5289 4.47379 20.0008 10.0013 20.0008H20.0008V0H10.0013C4.47379 0 0.00187577 4.47191 0.00187577 9.99945V10.0013ZM0.00187577 30.0021C0.00187577 35.5297 4.47379 40.0016 10.0013 40.0016H20.0008V20.0008H10.0013C4.47379 20.0008 0.00187577 24.4727 0.00187577 30.0002V30.0021Z" fill="url(#paint0_linear_122_25)"/>
<defs>
<linearGradient id="paint0_linear_122_25" x1="20.0017" y1="0" x2="20.0017" y2="60" gradientUnits="userSpaceOnUse">
<stop stop-color="#251F13" stop-opacity="0.792969"/>
<stop offset="1" stop-color="#D8B26E"/>
</linearGradient>
</defs>
</svg>
